<?xml version="1.0" encoding="UTF-8" standalone="no"?>
<!DOCTYPE svg PUBLIC "-//W3C//DTD SVG 1.1//EN"
 "http://www.w3.org/Graphics/SVG/1.1/DTD/svg11.dtd">
<!-- Generated by graphviz version 2.40.1 (20161225.0304)
 -->
<!-- Title: dependencies Pages: 1 -->
<svg width="3079pt" height="284pt"
 viewBox="0.00 0.00 3079.00 284.00" xmlns="http://www.w3.org/2000/svg" xmlns:xlink="http://www.w3.org/1999/xlink">
<g id="graph0" class="graph" transform="scale(1 1) rotate(0) translate(4 280)">
<title>dependencies</title>
<polygon fill="#ffffff" stroke="transparent" points="-4,4 -4,-280 3075,-280 3075,4 -4,4"/>
<text text-anchor="start" x="1514.5091" y="-42.4" font-family="sans-serif" font-weight="bold" font-size="14.00" fill="#000000">Legend</text>
<polygon fill="#ffffb3" stroke="transparent" points="1301.5,-10 1301.5,-30 1321.5,-30 1321.5,-10 1301.5,-10"/>
<text text-anchor="start" x="1325.129" y="-15.4" font-family="sans-serif" font-size="14.00" fill="#000000"> &#160;Declarations</text>
<polygon fill="#8dd3c7" stroke="transparent" points="1414.5,-10 1414.5,-30 1434.5,-30 1434.5,-10 1414.5,-10"/>
<text text-anchor="start" x="1438.2251" y="-15.4" font-family="sans-serif" font-size="14.00" fill="#000000"> &#160;Module</text>
<polygon fill="#80b1d3" stroke="transparent" points="1500.5,-10 1500.5,-30 1520.5,-30 1520.5,-10 1500.5,-10"/>
<text text-anchor="start" x="1524.2812" y="-15.4" font-family="sans-serif" font-size="14.00" fill="#000000"> &#160;Bootstrap</text>
<polygon fill="#fdb462" stroke="transparent" points="1597.5,-10 1597.5,-30 1617.5,-30 1617.5,-10 1597.5,-10"/>
<text text-anchor="start" x="1621.1732" y="-15.4" font-family="sans-serif" font-size="14.00" fill="#000000"> &#160;Providers</text>
<polygon fill="#fb8072" stroke="transparent" points="1693.5,-10 1693.5,-30 1713.5,-30 1713.5,-10 1693.5,-10"/>
<text text-anchor="start" x="1717.2258" y="-15.4" font-family="sans-serif" font-size="14.00" fill="#000000"> &#160;Exports</text>
<g id="clust1" class="cluster">
<title>cluster_AppModule</title>
<polygon fill="none" stroke="#000000" stroke-dasharray="1,5" points="8,-70 8,-268 3063,-268 3063,-70 8,-70"/>
</g>
<g id="clust2" class="cluster">
<title>cluster_AppModule_declarations</title>
<polygon fill="none" stroke="#000000" points="435,-78 435,-130 3055,-130 3055,-78 435,-78"/>
</g>
<g id="clust20" class="cluster">
<title>cluster_AppModule_imports</title>
<polygon fill="none" stroke="#000000" points="313,-78 313,-130 427,-130 427,-78 313,-78"/>
</g>
<g id="clust22" class="cluster">
<title>cluster_AppModule_bootstrap</title>
<polygon fill="none" stroke="#000000" points="351,-208 351,-260 2681,-260 2681,-208 351,-208"/>
</g>
<g id="clust23" class="cluster">
<title>cluster_AppModule_providers</title>
<polygon fill="none" stroke="#000000" points="16,-78 16,-130 305,-130 305,-78 16,-78"/>
</g>
<!-- AccountComponent -->
<g id="node1" class="node">
<title>AccountComponent</title>
<polygon fill="#ffffb3" stroke="#000000" points="3047.259,-122 2918.741,-122 2918.741,-86 3047.259,-86 3047.259,-122"/>
<text text-anchor="middle" x="2983" y="-99.8" font-family="Times,serif" font-size="14.00" fill="#000000">AccountComponent</text>
</g>
<!-- AppModule -->
<g id="node18" class="node">
<title>AppModule</title>
<polygon fill="#8dd3c7" stroke="#000000" points="1590.6571,-187 1587.6571,-191 1566.6571,-191 1563.6571,-187 1507.3429,-187 1507.3429,-151 1590.6571,-151 1590.6571,-187"/>
<text text-anchor="middle" x="1549" y="-164.8" font-family="Times,serif" font-size="14.00" fill="#000000">AppModule</text>
</g>
<!-- AccountComponent&#45;&gt;AppModule -->
<g id="edge1" class="edge">
<title>AccountComponent&#45;&gt;AppModule</title>
<path fill="none" stroke="#000000" d="M2983,-122.308C2983,-142.1455 2983,-171 2983,-171 2983,-171 1600.7545,-171 1600.7545,-171"/>
<polygon fill="#000000" stroke="#000000" points="1600.7545,-167.5001 1590.7545,-171 1600.7545,-174.5001 1600.7545,-167.5001"/>
</g>
<!-- AddServiceComponent -->
<g id="node2" class="node">
<title>AddServiceComponent</title>
<polygon fill="#ffffb3" stroke="#000000" points="2900.9172,-122 2753.0828,-122 2753.0828,-86 2900.9172,-86 2900.9172,-122"/>
<text text-anchor="middle" x="2827" y="-99.8" font-family="Times,serif" font-size="14.00" fill="#000000">AddServiceComponent</text>
</g>
<!-- AddServiceComponent&#45;&gt;AppModule -->
<g id="edge2" class="edge">
<title>AddServiceComponent&#45;&gt;AppModule</title>
<path fill="none" stroke="#000000" d="M2827,-122.1686C2827,-141.0898 2827,-168 2827,-168 2827,-168 1600.7948,-168 1600.7948,-168"/>
<polygon fill="#000000" stroke="#000000" points="1600.7948,-164.5001 1590.7948,-168 1600.7947,-171.5001 1600.7948,-164.5001"/>
</g>
<!-- AppComponent -->
<g id="node3" class="node">
<title>AppComponent</title>
<polygon fill="#ffffb3" stroke="#000000" points="2735.9399,-122 2630.0601,-122 2630.0601,-86 2735.9399,-86 2735.9399,-122"/>
<text text-anchor="middle" x="2683" y="-99.8" font-family="Times,serif" font-size="14.00" fill="#000000">AppComponent</text>
</g>
<!-- AppComponent&#45;&gt;AppModule -->
<g id="edge3" class="edge">
<title>AppComponent&#45;&gt;AppModule</title>
<path fill="none" stroke="#000000" d="M2651.875,-122.2667C2651.875,-140.5552 2651.875,-166 2651.875,-166 2651.875,-166 1600.8873,-166 1600.8873,-166"/>
<polygon fill="#000000" stroke="#000000" points="1600.8873,-162.5001 1590.8873,-166 1600.8872,-169.5001 1600.8873,-162.5001"/>
</g>
<!-- AuthComponent -->
<g id="node4" class="node">
<title>AuthComponent</title>
<polygon fill="#ffffb3" stroke="#000000" points="2612.8301,-122 2503.1699,-122 2503.1699,-86 2612.8301,-86 2612.8301,-122"/>
<text text-anchor="middle" x="2558" y="-99.8" font-family="Times,serif" font-size="14.00" fill="#000000">AuthComponent</text>
</g>
<!-- AuthComponent&#45;&gt;AppModule -->
<g id="edge4" class="edge">
<title>AuthComponent&#45;&gt;AppModule</title>
<path fill="none" stroke="#000000" d="M2524.9287,-122.002C2524.9287,-139.6754 2524.9287,-164 2524.9287,-164 2524.9287,-164 1600.9344,-164 1600.9344,-164"/>
<polygon fill="#000000" stroke="#000000" points="1600.9345,-160.5001 1590.9344,-164 1600.9344,-167.5001 1600.9345,-160.5001"/>
</g>
<!-- DeleteServiceComponent -->
<g id="node5" class="node">
<title>DeleteServiceComponent</title>
<polygon fill="#ffffb3" stroke="#000000" points="2484.8417,-122 2325.1583,-122 2325.1583,-86 2484.8417,-86 2484.8417,-122"/>
<text text-anchor="middle" x="2405" y="-99.8" font-family="Times,serif" font-size="14.00" fill="#000000">DeleteServiceComponent</text>
</g>
<!-- DeleteServiceComponent&#45;&gt;AppModule -->
<g id="edge5" class="edge">
<title>DeleteServiceComponent&#45;&gt;AppModule</title>
<path fill="none" stroke="#000000" d="M2367.1867,-122.0336C2367.1867,-139.0597 2367.1867,-162 2367.1867,-162 2367.1867,-162 1600.6988,-162 1600.6988,-162"/>
<polygon fill="#000000" stroke="#000000" points="1600.6989,-158.5001 1590.6988,-162 1600.6988,-165.5001 1600.6989,-158.5001"/>
</g>
<!-- EditServiceComponent -->
<g id="node6" class="node">
<title>EditServiceComponent</title>
<polygon fill="#ffffb3" stroke="#000000" points="2307.1442,-122 2160.8558,-122 2160.8558,-86 2307.1442,-86 2307.1442,-122"/>
<text text-anchor="middle" x="2234" y="-99.8" font-family="Times,serif" font-size="14.00" fill="#000000">EditServiceComponent</text>
</g>
<!-- EditServiceComponent&#45;&gt;AppModule -->
<g id="edge6" class="edge">
<title>EditServiceComponent&#45;&gt;AppModule</title>
<path fill="none" stroke="#000000" d="M2201.8463,-122.027C2201.8463,-138.3976 2201.8463,-160 2201.8463,-160 2201.8463,-160 1600.8316,-160 1600.8316,-160"/>
<polygon fill="#000000" stroke="#000000" points="1600.8316,-156.5001 1590.8316,-160 1600.8316,-163.5001 1600.8316,-156.5001"/>
</g>
<!-- ForgotComponent -->
<g id="node7" class="node">
<title>ForgotComponent</title>
<polygon fill="#ffffb3" stroke="#000000" points="2142.1667,-122 2023.8333,-122 2023.8333,-86 2142.1667,-86 2142.1667,-122"/>
<text text-anchor="middle" x="2083" y="-99.8" font-family="Times,serif" font-size="14.00" fill="#000000">ForgotComponent</text>
</g>
<!-- ForgotComponent&#45;&gt;AppModule -->
<g id="edge7" class="edge">
<title>ForgotComponent&#45;&gt;AppModule</title>
<path fill="none" stroke="#000000" d="M2061.5626,-122.2819C2061.5626,-137.9478 2061.5626,-158 2061.5626,-158 2061.5626,-158 1600.9451,-158 1600.9451,-158"/>
<polygon fill="#000000" stroke="#000000" points="1600.9452,-154.5001 1590.9451,-158 1600.9451,-161.5001 1600.9452,-154.5001"/>
</g>
<!-- HomeComponent -->
<g id="node8" class="node">
<title>HomeComponent</title>
<polygon fill="#ffffb3" stroke="#000000" points="2005.5451,-122 1890.4549,-122 1890.4549,-86 2005.5451,-86 2005.5451,-122"/>
<text text-anchor="middle" x="1948" y="-99.8" font-family="Times,serif" font-size="14.00" fill="#000000">HomeComponent</text>
</g>
<!-- HomeComponent&#45;&gt;AppModule -->
<g id="edge8" class="edge">
<title>HomeComponent&#45;&gt;AppModule</title>
<path fill="none" stroke="#000000" d="M1910.3978,-122.1871C1910.3978,-137.1824 1910.3978,-156 1910.3978,-156 1910.3978,-156 1600.81,-156 1600.81,-156"/>
<polygon fill="#000000" stroke="#000000" points="1600.81,-152.5001 1590.81,-156 1600.8099,-159.5001 1600.81,-152.5001"/>
</g>
<!-- ListServiceComponent -->
<g id="node9" class="node">
<title>ListServiceComponent</title>
<polygon fill="#ffffb3" stroke="#000000" points="1872.5884,-122 1727.4116,-122 1727.4116,-86 1872.5884,-86 1872.5884,-122"/>
<text text-anchor="middle" x="1800" y="-99.8" font-family="Times,serif" font-size="14.00" fill="#000000">ListServiceComponent</text>
</g>
<!-- ListServiceComponent&#45;&gt;AppModule -->
<g id="edge9" class="edge">
<title>ListServiceComponent&#45;&gt;AppModule</title>
<path fill="none" stroke="#000000" d="M1762.51,-122.0511C1762.51,-136.373 1762.51,-154 1762.51,-154 1762.51,-154 1600.6737,-154 1600.6737,-154"/>
<polygon fill="#000000" stroke="#000000" points="1600.6738,-150.5001 1590.6737,-154 1600.6737,-157.5001 1600.6738,-150.5001"/>
</g>
<!-- MakeOfferComponent -->
<g id="node10" class="node">
<title>MakeOfferComponent</title>
<polygon fill="#ffffb3" stroke="#000000" points="1709.51,-122 1566.49,-122 1566.49,-86 1709.51,-86 1709.51,-122"/>
<text text-anchor="middle" x="1638" y="-99.8" font-family="Times,serif" font-size="14.00" fill="#000000">MakeOfferComponent</text>
</g>
<!-- MakeOfferComponent&#45;&gt;AppModule -->
<g id="edge10" class="edge">
<title>MakeOfferComponent&#45;&gt;AppModule</title>
<path fill="none" stroke="#000000" d="M1578.5368,-122.1061C1578.5368,-122.1061 1578.5368,-140.991 1578.5368,-140.991"/>
<polygon fill="#000000" stroke="#000000" points="1575.0369,-140.9909 1578.5368,-150.991 1582.0369,-140.991 1575.0369,-140.9909"/>
</g>
<!-- MakeSuggestionComponent -->
<g id="node11" class="node">
<title>MakeSuggestionComponent</title>
<polygon fill="#ffffb3" stroke="#000000" points="1548.9297,-122 1373.0703,-122 1373.0703,-86 1548.9297,-86 1548.9297,-122"/>
<text text-anchor="middle" x="1461" y="-99.8" font-family="Times,serif" font-size="14.00" fill="#000000">MakeSuggestionComponent</text>
</g>
<!-- MakeSuggestionComponent&#45;&gt;AppModule -->
<g id="edge11" class="edge">
<title>MakeSuggestionComponent&#45;&gt;AppModule</title>
<path fill="none" stroke="#000000" d="M1527.9432,-122.1061C1527.9432,-122.1061 1527.9432,-140.991 1527.9432,-140.991"/>
<polygon fill="#000000" stroke="#000000" points="1524.4433,-140.9909 1527.9432,-150.991 1531.4433,-140.991 1524.4433,-140.9909"/>
</g>
<!-- NavbarComponent -->
<g id="node12" class="node">
<title>NavbarComponent</title>
<polygon fill="#ffffb3" stroke="#000000" points="1355.0297,-122 1232.9703,-122 1232.9703,-86 1355.0297,-86 1355.0297,-122"/>
<text text-anchor="middle" x="1294" y="-99.8" font-family="Times,serif" font-size="14.00" fill="#000000">NavbarComponent</text>
</g>
<!-- NavbarComponent&#45;&gt;AppModule -->
<g id="edge12" class="edge">
<title>NavbarComponent&#45;&gt;AppModule</title>
<path fill="none" stroke="#000000" d="M1332.8684,-122.0511C1332.8684,-136.373 1332.8684,-154 1332.8684,-154 1332.8684,-154 1497.3276,-154 1497.3276,-154"/>
<polygon fill="#000000" stroke="#000000" points="1497.3277,-157.5001 1507.3276,-154 1497.3276,-150.5001 1497.3277,-157.5001"/>
</g>
<!-- OfferComponent -->
<g id="node13" class="node">
<title>OfferComponent</title>
<polygon fill="#ffffb3" stroke="#000000" points="1214.636,-122 1103.364,-122 1103.364,-86 1214.636,-86 1214.636,-122"/>
<text text-anchor="middle" x="1159" y="-99.8" font-family="Times,serif" font-size="14.00" fill="#000000">OfferComponent</text>
</g>
<!-- OfferComponent&#45;&gt;AppModule -->
<g id="edge13" class="edge">
<title>OfferComponent&#45;&gt;AppModule</title>
<path fill="none" stroke="#000000" d="M1164.1766,-122.1871C1164.1766,-137.1824 1164.1766,-156 1164.1766,-156 1164.1766,-156 1497.0846,-156 1497.0846,-156"/>
<polygon fill="#000000" stroke="#000000" points="1497.0846,-159.5001 1507.0846,-156 1497.0846,-152.5001 1497.0846,-159.5001"/>
</g>
<!-- RegistrationComponent -->
<g id="node14" class="node">
<title>RegistrationComponent</title>
<polygon fill="#ffffb3" stroke="#000000" points="1084.766,-122 935.234,-122 935.234,-86 1084.766,-86 1084.766,-122"/>
<text text-anchor="middle" x="1010" y="-99.8" font-family="Times,serif" font-size="14.00" fill="#000000">RegistrationComponent</text>
</g>
<!-- RegistrationComponent&#45;&gt;AppModule -->
<g id="edge14" class="edge">
<title>RegistrationComponent&#45;&gt;AppModule</title>
<path fill="none" stroke="#000000" d="M1033.7341,-122.2819C1033.7341,-137.9478 1033.7341,-158 1033.7341,-158 1033.7341,-158 1497.2701,-158 1497.2701,-158"/>
<polygon fill="#000000" stroke="#000000" points="1497.2701,-161.5001 1507.2701,-158 1497.2701,-154.5001 1497.2701,-161.5001"/>
</g>
<!-- SuggestionComponent -->
<g id="node15" class="node">
<title>SuggestionComponent</title>
<polygon fill="#ffffb3" stroke="#000000" points="916.5561,-122 773.4439,-122 773.4439,-86 916.5561,-86 916.5561,-122"/>
<text text-anchor="middle" x="845" y="-99.8" font-family="Times,serif" font-size="14.00" fill="#000000">SuggestionComponent</text>
</g>
<!-- SuggestionComponent&#45;&gt;AppModule -->
<g id="edge15" class="edge">
<title>SuggestionComponent&#45;&gt;AppModule</title>
<path fill="none" stroke="#000000" d="M864.0724,-122.027C864.0724,-138.3976 864.0724,-160 864.0724,-160 864.0724,-160 1497.1858,-160 1497.1858,-160"/>
<polygon fill="#000000" stroke="#000000" points="1497.1858,-163.5001 1507.1858,-160 1497.1857,-156.5001 1497.1858,-163.5001"/>
</g>
<!-- ValidationComponent -->
<g id="node16" class="node">
<title>ValidationComponent</title>
<polygon fill="#ffffb3" stroke="#000000" points="755.4313,-122 614.5687,-122 614.5687,-86 755.4313,-86 755.4313,-122"/>
<text text-anchor="middle" x="685" y="-99.8" font-family="Times,serif" font-size="14.00" fill="#000000">ValidationComponent</text>
</g>
<!-- ValidationComponent&#45;&gt;AppModule -->
<g id="edge16" class="edge">
<title>ValidationComponent&#45;&gt;AppModule</title>
<path fill="none" stroke="#000000" d="M708.043,-122.0336C708.043,-139.0597 708.043,-162 708.043,-162 708.043,-162 1497.2968,-162 1497.2968,-162"/>
<polygon fill="#000000" stroke="#000000" points="1497.2968,-165.5001 1507.2968,-162 1497.2968,-158.5001 1497.2968,-165.5001"/>
</g>
<!-- ViewServiceComponent -->
<g id="node17" class="node">
<title>ViewServiceComponent</title>
<polygon fill="#ffffb3" stroke="#000000" points="596.6288,-122 443.3712,-122 443.3712,-86 596.6288,-86 596.6288,-122"/>
<text text-anchor="middle" x="520" y="-99.8" font-family="Times,serif" font-size="14.00" fill="#000000">ViewServiceComponent</text>
</g>
<!-- ViewServiceComponent&#45;&gt;AppModule -->
<g id="edge17" class="edge">
<title>ViewServiceComponent&#45;&gt;AppModule</title>
<path fill="none" stroke="#000000" d="M558.8656,-122.002C558.8656,-139.6754 558.8656,-164 558.8656,-164 558.8656,-164 1497.0876,-164 1497.0876,-164"/>
<polygon fill="#000000" stroke="#000000" points="1497.0876,-167.5001 1507.0876,-164 1497.0875,-160.5001 1497.0876,-167.5001"/>
</g>
<!-- AppComponent  -->
<g id="node20" class="node">
<title>AppComponent </title>
<polygon fill="#80b1d3" stroke="#000000" points="2673.439,-252 2564.561,-252 2564.561,-216 2673.439,-216 2673.439,-252"/>
<text text-anchor="middle" x="2619" y="-229.8" font-family="Times,serif" font-size="14.00" fill="#000000">AppComponent </text>
</g>
<!-- AppModule&#45;&gt;AppComponent  -->
<g id="edge19" class="edge">
<title>AppModule&#45;&gt;AppComponent </title>
<path fill="none" stroke="#000000" stroke-dasharray="1,5" d="M1590.7175,-173C1784.6407,-173 2588.5976,-173 2588.5976,-173 2588.5976,-173 2588.5976,-205.698 2588.5976,-205.698"/>
<polygon fill="#000000" stroke="#000000" points="2585.0977,-205.698 2588.5976,-215.698 2592.0977,-205.698 2585.0977,-205.698"/>
</g>
<!-- HomeComponent  -->
<g id="node21" class="node">
<title>HomeComponent </title>
<polygon fill="#80b1d3" stroke="#000000" points="2546.5442,-252 2427.4558,-252 2427.4558,-216 2546.5442,-216 2546.5442,-252"/>
<text text-anchor="middle" x="2487" y="-229.8" font-family="Times,serif" font-size="14.00" fill="#000000">HomeComponent </text>
</g>
<!-- AppModule&#45;&gt;HomeComponent  -->
<g id="edge20" class="edge">
<title>AppModule&#45;&gt;HomeComponent </title>
<path fill="none" stroke="#000000" stroke-dasharray="1,5" d="M1590.9367,-175C1769.3552,-175 2456.1994,-175 2456.1994,-175 2456.1994,-175 2456.1994,-205.9775 2456.1994,-205.9775"/>
<polygon fill="#000000" stroke="#000000" points="2452.6994,-205.9774 2456.1994,-215.9775 2459.6994,-205.9775 2452.6994,-205.9774"/>
</g>
<!-- ListServiceComponent  -->
<g id="node22" class="node">
<title>ListServiceComponent </title>
<polygon fill="#80b1d3" stroke="#000000" points="2409.089,-252 2260.911,-252 2260.911,-216 2409.089,-216 2409.089,-252"/>
<text text-anchor="middle" x="2335" y="-229.8" font-family="Times,serif" font-size="14.00" fill="#000000">ListServiceComponent </text>
</g>
<!-- AppModule&#45;&gt;ListServiceComponent  -->
<g id="edge21" class="edge">
<title>AppModule&#45;&gt;ListServiceComponent </title>
<path fill="none" stroke="#000000" stroke-dasharray="1,5" d="M1590.8901,-177C1746.7249,-177 2284.0139,-177 2284.0139,-177 2284.0139,-177 2284.0139,-205.9648 2284.0139,-205.9648"/>
<polygon fill="#000000" stroke="#000000" points="2280.5139,-205.9648 2284.0139,-215.9648 2287.5139,-205.9649 2280.5139,-205.9648"/>
</g>
<!-- NavbarComponent  -->
<g id="node23" class="node">
<title>NavbarComponent </title>
<polygon fill="#80b1d3" stroke="#000000" points="2243.0288,-252 2116.9712,-252 2116.9712,-216 2243.0288,-216 2243.0288,-252"/>
<text text-anchor="middle" x="2180" y="-229.8" font-family="Times,serif" font-size="14.00" fill="#000000">NavbarComponent </text>
</g>
<!-- AppModule&#45;&gt;NavbarComponent  -->
<g id="edge22" class="edge">
<title>AppModule&#45;&gt;NavbarComponent </title>
<path fill="none" stroke="#000000" stroke-dasharray="1,5" d="M1590.7596,-179C1723.8995,-179 2129.6594,-179 2129.6594,-179 2129.6594,-179 2129.6594,-205.9909 2129.6594,-205.9909"/>
<polygon fill="#000000" stroke="#000000" points="2126.1594,-205.9909 2129.6594,-215.9909 2133.1594,-205.991 2126.1594,-205.9909"/>
</g>
<!-- AddServiceComponent  -->
<g id="node24" class="node">
<title>AddServiceComponent </title>
<polygon fill="#80b1d3" stroke="#000000" points="2099.4166,-252 1948.5834,-252 1948.5834,-216 2099.4166,-216 2099.4166,-252"/>
<text text-anchor="middle" x="2024" y="-229.8" font-family="Times,serif" font-size="14.00" fill="#000000">AddServiceComponent </text>
</g>
<!-- AppModule&#45;&gt;AddServiceComponent  -->
<g id="edge23" class="edge">
<title>AppModule&#45;&gt;AddServiceComponent </title>
<path fill="none" stroke="#000000" stroke-dasharray="1,5" d="M1590.8331,-181C1698.5684,-181 1977.1569,-181 1977.1569,-181 1977.1569,-181 1977.1569,-205.7604 1977.1569,-205.7604"/>
<polygon fill="#000000" stroke="#000000" points="1973.657,-205.7604 1977.1569,-215.7604 1980.657,-205.7604 1973.657,-205.7604"/>
</g>
<!-- OfferComponent  -->
<g id="node25" class="node">
<title>OfferComponent </title>
<polygon fill="#80b1d3" stroke="#000000" points="1930.6355,-252 1815.3645,-252 1815.3645,-216 1930.6355,-216 1930.6355,-252"/>
<text text-anchor="middle" x="1873" y="-229.8" font-family="Times,serif" font-size="14.00" fill="#000000">OfferComponent </text>
</g>
<!-- AppModule&#45;&gt;OfferComponent  -->
<g id="edge24" class="edge">
<title>AppModule&#45;&gt;OfferComponent </title>
<path fill="none" stroke="#000000" stroke-dasharray="1,5" d="M1590.9513,-183C1672.3924,-183 1843.9883,-183 1843.9883,-183 1843.9883,-183 1843.9883,-205.8757 1843.9883,-205.8757"/>
<polygon fill="#000000" stroke="#000000" points="1840.4883,-205.8757 1843.9883,-215.8757 1847.4883,-205.8757 1840.4883,-205.8757"/>
</g>
<!-- ViewServiceComponent  -->
<g id="node26" class="node">
<title>ViewServiceComponent </title>
<polygon fill="#80b1d3" stroke="#000000" points="1797.6285,-252 1640.3715,-252 1640.3715,-216 1797.6285,-216 1797.6285,-252"/>
<text text-anchor="middle" x="1719" y="-229.8" font-family="Times,serif" font-size="14.00" fill="#000000">ViewServiceComponent </text>
</g>
<!-- AppModule&#45;&gt;ViewServiceComponent  -->
<g id="edge25" class="edge">
<title>AppModule&#45;&gt;ViewServiceComponent </title>
<path fill="none" stroke="#000000" stroke-dasharray="1,5" d="M1590.9879,-185C1627.669,-185 1675.0952,-185 1675.0952,-185 1675.0952,-185 1675.0952,-205.7542 1675.0952,-205.7542"/>
<polygon fill="#000000" stroke="#000000" points="1671.5953,-205.7542 1675.0952,-215.7542 1678.5953,-205.7542 1671.5953,-205.7542"/>
</g>
<!-- MakeOfferComponent  -->
<g id="node27" class="node">
<title>MakeOfferComponent </title>
<polygon fill="#80b1d3" stroke="#000000" points="1622.5092,-252 1475.4908,-252 1475.4908,-216 1622.5092,-216 1622.5092,-252"/>
<text text-anchor="middle" x="1549" y="-229.8" font-family="Times,serif" font-size="14.00" fill="#000000">MakeOfferComponent </text>
</g>
<!-- AppModule&#45;&gt;MakeOfferComponent  -->
<g id="edge26" class="edge">
<title>AppModule&#45;&gt;MakeOfferComponent </title>
<path fill="none" stroke="#000000" stroke-dasharray="1,5" d="M1549,-187.1061C1549,-187.1061 1549,-205.991 1549,-205.991"/>
<polygon fill="#000000" stroke="#000000" points="1545.5001,-205.9909 1549,-215.991 1552.5001,-205.991 1545.5001,-205.9909"/>
</g>
<!-- SuggestionComponent  -->
<g id="node28" class="node">
<title>SuggestionComponent </title>
<polygon fill="#80b1d3" stroke="#000000" points="1457.5554,-252 1310.4446,-252 1310.4446,-216 1457.5554,-216 1457.5554,-252"/>
<text text-anchor="middle" x="1384" y="-229.8" font-family="Times,serif" font-size="14.00" fill="#000000">SuggestionComponent </text>
</g>
<!-- AppModule&#45;&gt;SuggestionComponent  -->
<g id="edge27" class="edge">
<title>AppModule&#45;&gt;SuggestionComponent </title>
<path fill="none" stroke="#000000" stroke-dasharray="1,5" d="M1507.0967,-185C1467.9182,-185 1415.4066,-185 1415.4066,-185 1415.4066,-185 1415.4066,-205.7542 1415.4066,-205.7542"/>
<polygon fill="#000000" stroke="#000000" points="1411.9066,-205.7542 1415.4066,-215.7542 1418.9066,-205.7542 1411.9066,-205.7542"/>
</g>
<!-- MakeSuggestionComponent  -->
<g id="node29" class="node">
<title>MakeSuggestionComponent </title>
<polygon fill="#80b1d3" stroke="#000000" points="1292.4292,-252 1113.5708,-252 1113.5708,-216 1292.4292,-216 1292.4292,-252"/>
<text text-anchor="middle" x="1203" y="-229.8" font-family="Times,serif" font-size="14.00" fill="#000000">MakeSuggestionComponent </text>
</g>
<!-- AppModule&#45;&gt;MakeSuggestionComponent  -->
<g id="edge28" class="edge">
<title>AppModule&#45;&gt;MakeSuggestionComponent </title>
<path fill="none" stroke="#000000" stroke-dasharray="1,5" d="M1507.0483,-183C1427.4979,-183 1262.6001,-183 1262.6001,-183 1262.6001,-183 1262.6001,-205.8757 1262.6001,-205.8757"/>
<polygon fill="#000000" stroke="#000000" points="1259.1002,-205.8757 1262.6001,-215.8757 1266.1002,-205.8757 1259.1002,-205.8757"/>
</g>
<!-- AuthComponent  -->
<g id="node30" class="node">
<title>AuthComponent </title>
<polygon fill="#80b1d3" stroke="#000000" points="1095.3297,-252 982.6703,-252 982.6703,-216 1095.3297,-216 1095.3297,-252"/>
<text text-anchor="middle" x="1039" y="-229.8" font-family="Times,serif" font-size="14.00" fill="#000000">AuthComponent </text>
</g>
<!-- AppModule&#45;&gt;AuthComponent  -->
<g id="edge29" class="edge">
<title>AppModule&#45;&gt;AuthComponent </title>
<path fill="none" stroke="#000000" stroke-dasharray="1,5" d="M1507.0636,-181C1393.7909,-181 1090.1489,-181 1090.1489,-181 1090.1489,-181 1090.1489,-205.7604 1090.1489,-205.7604"/>
<polygon fill="#000000" stroke="#000000" points="1086.6489,-205.7604 1090.1489,-215.7604 1093.6489,-205.7604 1086.6489,-205.7604"/>
</g>
<!-- RegistrationComponent  -->
<g id="node31" class="node">
<title>RegistrationComponent </title>
<polygon fill="#80b1d3" stroke="#000000" points="964.766,-252 811.234,-252 811.234,-216 964.766,-216 964.766,-252"/>
<text text-anchor="middle" x="888" y="-229.8" font-family="Times,serif" font-size="14.00" fill="#000000">RegistrationComponent </text>
</g>
<!-- AppModule&#45;&gt;RegistrationComponent  -->
<g id="edge30" class="edge">
<title>AppModule&#45;&gt;RegistrationComponent </title>
<path fill="none" stroke="#000000" stroke-dasharray="1,5" d="M1506.8707,-179C1370.4971,-179 949.875,-179 949.875,-179 949.875,-179 949.875,-205.9909 949.875,-205.9909"/>
<polygon fill="#000000" stroke="#000000" points="946.3751,-205.9909 949.875,-215.9909 953.3751,-205.991 946.3751,-205.9909"/>
</g>
<!-- AccountComponent  -->
<g id="node32" class="node">
<title>AccountComponent </title>
<polygon fill="#80b1d3" stroke="#000000" points="793.2591,-252 660.7409,-252 660.7409,-216 793.2591,-216 793.2591,-252"/>
<text text-anchor="middle" x="727" y="-229.8" font-family="Times,serif" font-size="14.00" fill="#000000">AccountComponent </text>
</g>
<!-- AppModule&#45;&gt;AccountComponent  -->
<g id="edge31" class="edge">
<title>AppModule&#45;&gt;AccountComponent </title>
<path fill="none" stroke="#000000" stroke-dasharray="1,5" d="M1507.2821,-177C1347.4717,-177 783.1759,-177 783.1759,-177 783.1759,-177 783.1759,-205.9648 783.1759,-205.9648"/>
<polygon fill="#000000" stroke="#000000" points="779.6759,-205.9648 783.1759,-215.9648 786.6759,-205.9649 779.6759,-205.9648"/>
</g>
<!-- ForgotComponent  -->
<g id="node33" class="node">
<title>ForgotComponent </title>
<polygon fill="#80b1d3" stroke="#000000" points="643.1663,-252 520.8337,-252 520.8337,-216 643.1663,-216 643.1663,-252"/>
<text text-anchor="middle" x="582" y="-229.8" font-family="Times,serif" font-size="14.00" fill="#000000">ForgotComponent </text>
</g>
<!-- AppModule&#45;&gt;ForgotComponent  -->
<g id="edge32" class="edge">
<title>AppModule&#45;&gt;ForgotComponent </title>
<path fill="none" stroke="#000000" stroke-dasharray="1,5" d="M1507.0759,-175C1327.084,-175 628.9339,-175 628.9339,-175 628.9339,-175 628.9339,-205.9775 628.9339,-205.9775"/>
<polygon fill="#000000" stroke="#000000" points="625.434,-205.9774 628.9339,-215.9775 632.434,-205.9775 625.434,-205.9774"/>
</g>
<!-- ValidationComponent  -->
<g id="node34" class="node">
<title>ValidationComponent </title>
<polygon fill="#80b1d3" stroke="#000000" points="502.9306,-252 359.0694,-252 359.0694,-216 502.9306,-216 502.9306,-252"/>
<text text-anchor="middle" x="431" y="-229.8" font-family="Times,serif" font-size="14.00" fill="#000000">ValidationComponent </text>
</g>
<!-- AppModule&#45;&gt;ValidationComponent  -->
<g id="edge33" class="edge">
<title>AppModule&#45;&gt;ValidationComponent </title>
<path fill="none" stroke="#000000" stroke-dasharray="1,5" d="M1507.1527,-173C1308.8254,-173 473.0756,-173 473.0756,-173 473.0756,-173 473.0756,-205.698 473.0756,-205.698"/>
<polygon fill="#000000" stroke="#000000" points="469.5756,-205.698 473.0756,-215.698 476.5756,-205.698 469.5756,-205.698"/>
</g>
<!-- RoutesModule -->
<g id="node19" class="node">
<title>RoutesModule</title>
<polygon fill="#8dd3c7" stroke="#000000" points="419.4372,-122 416.4372,-126 395.4372,-126 392.4372,-122 320.5628,-122 320.5628,-86 419.4372,-86 419.4372,-122"/>
<text text-anchor="middle" x="370" y="-99.8" font-family="Times,serif" font-size="14.00" fill="#000000">RoutesModule</text>
</g>
<!-- RoutesModule&#45;&gt;AppModule -->
<g id="edge18" class="edge">
<title>RoutesModule&#45;&gt;AppModule</title>
<path fill="none" stroke="#000000" d="M389.1264,-122.2667C389.1264,-140.5552 389.1264,-166 389.1264,-166 389.1264,-166 1497.0343,-166 1497.0343,-166"/>
<polygon fill="#000000" stroke="#000000" points="1497.0343,-169.5001 1507.0343,-166 1497.0342,-162.5001 1497.0343,-169.5001"/>
</g>
<!-- AuthGuard -->
<g id="node35" class="node">
<title>AuthGuard</title>
<ellipse fill="#fdb462" stroke="#000000" cx="243" cy="-104" rx="54.4566" ry="18"/>
<text text-anchor="middle" x="243" y="-99.8" font-family="Times,serif" font-size="14.00" fill="#000000">AuthGuard</text>
</g>
<!-- AuthGuard&#45;&gt;AppModule -->
<g id="edge34" class="edge">
<title>AuthGuard&#45;&gt;AppModule</title>
<path fill="none" stroke="#000000" d="M243,-122.1686C243,-141.0898 243,-168 243,-168 243,-168 1497.0262,-168 1497.0262,-168"/>
<polygon fill="#000000" stroke="#000000" points="1497.0262,-171.5001 1507.0262,-168 1497.0262,-164.5001 1497.0262,-171.5001"/>
</g>
<!-- RestDataSource -->
<g id="node36" class="node">
<title>RestDataSource</title>
<ellipse fill="#fdb462" stroke="#000000" cx="97" cy="-104" rx="73.49" ry="18"/>
<text text-anchor="middle" x="97" y="-99.8" font-family="Times,serif" font-size="14.00" fill="#000000">RestDataSource</text>
</g>
<!-- RestDataSource&#45;&gt;AppModule -->
<g id="edge35" class="edge">
<title>RestDataSource&#45;&gt;AppModule</title>
<path fill="none" stroke="#000000" d="M97,-122.308C97,-142.1455 97,-171 97,-171 97,-171 1497.1104,-171 1497.1104,-171"/>
<polygon fill="#000000" stroke="#000000" points="1497.1104,-174.5001 1507.1104,-171 1497.1103,-167.5001 1497.1104,-174.5001"/>
</g>
</g>
</svg>
